# xmcd CD database file
#
# Track frame offsets:
#	150
#	15572
#	28559
#	46667
#	63886
#	79983
#	95923
#	115018
#	131346
#	148238
#	165527
#	183087
#	198742
#	216886
#
# Disc length: 3128 seconds
#
# Revision: 0
# Processed by: cddbd v1.5.2PL0 Copyright (c) Steve Scherf et al.
# Submitted via: jetAudio 7
#
DISCID=bd0c360e
DTITLE=Lonestar - the very best of lonestar
DYEAR=1900
DGENRE=Country
TTITLE0=Tequila Talkin'
TTITLE1=No News
TTITLE2=Amazed
TTITLE3=I've Gotta Find you
TTITLE4=Smile
TTITLE5=What About Now
TTITLE6=I'm Already There
TTITLE7=unusally unusual
TTITLE8=My Front Porch Looking In
TTITLE9=Walking In Memphis
TTITLE10=Let's Be Us Agaon
TTITLE11=Mr. Mom
TTITLE12=YOu're Like Comin' Home
TTITLE13=Mountains
EXTD=
EXTT0=
EXTT1=
EXTT2=
EXTT3=
EXTT4=
EXTT5=
EXTT6=
EXTT7=
EXTT8=
EXTT9=
EXTT10=
EXTT11=
EXTT12=
EXTT13=
PLAYORDER=
